<?xml version="1.0"?><svg width="533.3333333333333" height="533.3333333333333" xmlns="http://www.w3.org/2000/svg">
 <title>Scissors</title>

 <g>
  <title>Layer 1</title>
  <path transform="rotate(-90, 166.574, 234.547)" fill="#000000" fill-rule="evenodd" stroke="#000000" stroke-width="10.000006" stroke-linejoin="round" id="path693" d="m208.411926,88.195068c-0.826416,0.190132 -92.846832,277.162415 -92.846832,277.162415c0,0 50.515839,15.350616 49.689423,15.540741c-0.826385,0.190125 78.761047,-217.367035 43.15741,-292.703156z"/>
  <path transform="rotate(-90, 403.01, 318.938)" fill="#000000" fill-rule="evenodd" stroke="#000000" stroke-width="10" stroke-linejoin="bevel" id="path596" d="m484.797729,228.32547c0,0 -45.401917,119.053192 -36.999207,136.733704c-0.363098,10.785797 -33.796509,59.453705 -55.409668,59.925903c-18.636322,1.171692 -79.934204,-13.48941 -70.106415,-73.750122c11.685577,-61.997375 61.955597,-40.507996 81.83078,-42.837891c19.875916,-2.330597 53.658203,-79.181 30.213501,-95.568787c26.164734,6.879974 49.811218,17.274902 50.471008,15.497192zm-89.355591,88.177704c-67.78772,-17.879395 -80.966949,88.460205 -20.587311,94.692993c67.695007,2.879303 67.125702,-87.126312 20.587311,-94.692993z"/>
  <path transform="rotate(-90, 163.594, 288.084)" fill="#000000" fill-rule="evenodd" stroke="#000000" stroke-width="9.999993" stroke-linejoin="bevel" id="path674" d="m113.635941,143.003525c0.83493,0.1483 106.679276,272.138382 106.679276,272.138382c0,0 -49.67926,17.873718 -48.844315,18.022003c0.83493,0.148285 -89.60173,-213.127655 -57.834961,-290.160385z"/>
  <path transform="rotate(-90, 394.955, 193.814)" fill="#000000" fill-rule="evenodd" stroke="#000000" stroke-width="10" stroke-linejoin="bevel" id="path590" d="m403.500397,190.507813c66.802094,-21.268707 85.316895,84.272888 25.327393,93.536804c-67.464386,6.282776 -71.425903,-83.637512 -25.327393,-93.536804zm-93.680511,-83.568695c0,0 51.336609,116.617279 43.83432,134.698303c0.905579,10.753784 36.746094,57.677399 58.355804,57.061188c18.67157,0.232208 79.153992,-17.495514 66.305573,-77.185303c-14.791077,-61.330688 -63.915894,-37.338409 -83.883179,-38.665009c-19.968109,-1.327301 -57.575592,-76.380005 -34.985413,-93.927094c-25.785309,8.188202 -48.878693,19.760101 -49.627106,18.017914z"/>
 </g>
</svg>